<svg xmlns="http://www.w3.org/2000/svg" viewBox="0 0 640 160" role="img" aria-label="15-Punkte-System der Oberstufe: Punkte 15 bis 0 mit Noten 1 bis 6">
<title>15-Punkte-System der Oberstufe: 15 bis 13 Punkte Note 1, 12 bis 10 Note 2, 9 bis 7 Note 3, 6 bis 4 Note 4, 3 bis 1 Note 5, 0 Punkte Note 6</title>
<g font-family="Arial,Helvetica,sans-serif" text-anchor="middle">
<rect x="20" y="20" width="37.5" height="60" fill="#2e7d32"/><rect x="57.5" y="20" width="37.5" height="60" fill="#2e7d32"/><rect x="95" y="20" width="37.5" height="60" fill="#2e7d32"/>
<rect x="132.5" y="20" width="37.5" height="60" fill="#66bb6a"/><rect x="170" y="20" width="37.5" height="60" fill="#66bb6a"/><rect x="207.5" y="20" width="37.5" height="60" fill="#66bb6a"/>
<rect x="245" y="20" width="37.5" height="60" fill="#d4a017"/><rect x="282.5" y="20" width="37.5" height="60" fill="#d4a017"/><rect x="320" y="20" width="37.5" height="60" fill="#d4a017"/>
<rect x="357.5" y="20" width="37.5" height="60" fill="#ef6c00"/><rect x="395" y="20" width="37.5" height="60" fill="#ef6c00"/><rect x="432.5" y="20" width="37.5" height="60" fill="#ef6c00"/>
<rect x="470" y="20" width="37.5" height="60" fill="#c62828"/><rect x="507.5" y="20" width="37.5" height="60" fill="#c62828"/><rect x="545" y="20" width="37.5" height="60" fill="#c62828"/>
<rect x="582.5" y="20" width="37.5" height="60" fill="#7f0000"/>
<g fill="#ffffff" font-size="15" font-weight="bold">
<text x="38.75" y="56">15</text><text x="76.25" y="56">14</text><text x="113.75" y="56">13</text>
<text x="151.25" y="56">12</text><text x="188.75" y="56">11</text><text x="226.25" y="56">10</text>
<text x="263.75" y="56">9</text><text x="301.25" y="56">8</text><text x="338.75" y="56">7</text>
<text x="376.25" y="56">6</text><text x="413.75" y="56">5</text><text x="451.25" y="56">4</text>
<text x="488.75" y="56">3</text><text x="526.25" y="56">2</text><text x="563.75" y="56">1</text>
<text x="601.25" y="56">0</text>
</g>
<g font-size="13" fill="#1f2a37" font-weight="bold">
<text x="76.25" y="102">Note 1</text>
<text x="188.75" y="102">Note 2</text>
<text x="301.25" y="102">Note 3</text>
<text x="413.75" y="102">Note 4</text>
<text x="526.25" y="102">Note 5</text>
<text x="601.25" y="102">Note 6</text>
</g>
</g>
<text x="320" y="140" font-family="Arial,Helvetica,sans-serif" font-size="13" fill="#1f2a37" text-anchor="middle">15-Punkte-System der Oberstufe: Punkte in Noten umrechnen</text>
</svg>
